<?xml version="1.0" standalone="no"?>
<!DOCTYPE svg PUBLIC "-//W3C//DTD SVG 20010904//EN"
 "http://www.w3.org/TR/2001/REC-SVG-20010904/DTD/svg10.dtd">
<svg version="1.0" xmlns="http://www.w3.org/2000/svg"
 width="256.000000pt" height="256.000000pt" viewBox="0 0 256.000000 256.000000"
 preserveAspectRatio="xMidYMid meet">
<metadata>
Created by potrace 1.14, written by Peter Selinger 2001-2017
</metadata>
<g transform="translate(0.000000,256.000000) scale(0.100000,-0.100000)"
fill="#000000" stroke="none">
<path d="M1283 2539 c3 -10 -1 -20 -8 -22 -6 -3 -31 -40 -53 -84 -23 -43 -53
-96 -66 -118 -38 -66 -96 -181 -96 -191 0 -10 -27 -63 -92 -184 -19 -36 -45
-92 -57 -124 -12 -33 -51 -118 -87 -191 l-66 -132 -121 -37 c-67 -20 -147 -48
-177 -61 -30 -13 -58 -21 -63 -16 -4 4 -8 84 -9 177 0 126 4 188 16 244 10 41
19 83 21 93 2 9 6 21 10 26 3 5 1 13 -5 16 -7 4 -1 17 15 33 32 31 54 72 70
127 10 34 9 48 -7 95 -25 72 -59 110 -119 130 -43 15 -66 17 -145 11 -11 0
-30 -10 -42 -21 -12 -11 -26 -20 -31 -20 -6 0 -17 -13 -26 -30 -9 -16 -13 -30
-10 -30 3 0 -7 -12 -22 -26 -24 -23 -28 -33 -28 -86 0 -33 4 -62 10 -65 5 -4
7 -3 3 2 -9 9 9 45 22 45 6 0 10 -8 10 -17 0 -15 -2 -16 -10 -3 -8 13 -10 12
-10 -2 0 -10 5 -18 10 -18 6 0 10 -6 10 -13 0 -7 12 -30 27 -52 18 -26 39 -85
59 -166 l32 -125 1 -557 c0 -306 -2 -563 -5 -570 -3 -8 -25 -22 -50 -32 -49
-18 -66 -42 -71 -95 -1 -19 -4 -48 -7 -65 -2 -16 0 -38 5 -47 7 -12 4 -20 -8
-27 -15 -8 -15 -10 -3 -11 9 0 16 -9 17 -20 2 -25 -4 -25 -31 -3 -20 18 -21
17 -5 -2 8 -11 14 -33 14 -50 -2 -34 12 -68 25 -60 4 3 7 -3 6 -12 -2 -9 -8
-19 -14 -21 -16 -5 -15 -22 1 -18 6 1 9 1 5 -1 -4 -3 -3 -16 3 -30 10 -27 5
-43 -14 -42 -9 0 -9 2 1 6 6 2 12 9 12 14 0 6 -4 8 -8 5 -12 -7 -38 12 -29 21
5 4 13 1 18 -7 8 -12 9 -11 6 5 -2 11 -9 19 -16 17 -9 -2 -9 3 0 19 6 12 7 19
2 16 -5 -4 -10 1 -10 9 0 10 4 11 11 4 5 -5 15 -10 21 -10 5 1 1 8 -10 18 -13
11 -21 32 -22 56 -5 82 -10 41 -9 -83 l1 -130 1111 0 1112 -1 -3 100 c-4 126
-33 226 -80 276 -5 6 -21 26 -34 45 -23 34 -86 82 -148 113 -18 9 -33 14 -33
11 0 -3 -9 -1 -19 4 -10 6 -42 11 -70 12 -32 2 -48 6 -45 13 3 6 -1 3 -9 -6
-8 -10 -17 -15 -20 -11 -13 13 -7 161 8 196 8 20 15 51 15 68 0 18 18 69 40
115 30 62 44 82 57 79 10 -1 23 0 28 4 6 3 12 6 15 6 243 37 377 118 347 210
-31 92 -98 131 -382 222 l-120 38 -58 115 c-32 63 -70 144 -83 180 -14 36 -51
115 -83 175 -32 61 -72 143 -89 182 -17 40 -49 104 -72 143 -22 38 -57 100
-76 136 -50 95 -64 113 -79 108 -7 -3 -16 -1 -20 5 -3 6 0 9 8 5 8 -3 18 -1
21 4 3 5 -6 10 -20 10 -20 0 -25 -5 -21 -19z m-1151 -346 c-5 -10 -8 -32 -7
-49 2 -20 -3 -34 -14 -41 -15 -10 -17 -6 -17 31 1 22 8 48 16 58 20 22 33 22
22 1z m344 -1142 c39 -11 97 -22 128 -26 57 -7 59 -8 80 -54 12 -25 29 -57 38
-71 9 -14 18 -47 21 -75 3 -27 10 -63 16 -80 15 -45 20 -175 7 -176 -6 -1 -36
-3 -67 -5 -30 -1 -79 -12 -109 -23 -29 -11 -57 -18 -61 -16 -4 3 -9 0 -11 -7
-4 -10 -14 -8 -44 5 -88 40 -83 27 -85 257 -2 249 -1 290 9 290 4 0 39 -9 78
-19z m-349 -816 c0 -8 -4 -12 -9 -9 -10 7 -10 24 0 24 5 0 9 -7 9 -15z m3 -35
c0 -5 -2 -10 -4 -10 -3 0 -8 5 -11 10 -3 6 -1 10 4 10 6 0 11 -4 11 -10z m0
-179 c0 -4 -8 -7 -18 -8 -10 -1 -19 4 -19 11 0 8 8 11 19 8 10 -2 18 -7 18
-11z"/>
<path d="M109 2168 c-4 -12 -5 -57 0 -53 6 6 10 55 4 55 -1 0 -3 -1 -4 -2z"/>
<path d="M95 458 c-6 -15 -14 -78 -10 -78 2 0 10 12 20 26 9 15 12 23 6 20 -7
-5 -11 1 -11 14 0 13 4 19 12 14 7 -4 8 -3 4 4 -9 15 -15 15 -21 0z"/>
<path d="M95 372 c-15 -10 -16 -29 -2 -29 7 0 13 9 13 19 0 10 0 18 -1 18 0 0
-4 -4 -10 -8z"/>
</g>
</svg>
